<svg width="583" height="97" fill="none" xmlns="http://www.w3.org/2000/svg">
    <symbol id="heading" viewBox="0 0 583 97" >
        <g filter="url(#filter0_i)">
        <path d="M36.5262 69.951L6.05863 66.0311L11.4636 21.5457L41.9312 25.4656L40.8494 34.3689L19.2772 31.5935L18.1955 40.4968L32.7939 42.375L31.7122 51.2782L17.1138 49.4L16.0358 58.2723L37.608 61.0477L36.5262 69.951Z" fill="#5C5C5C"/>
        <path d="M53.1342 71.3152L44.6423 70.4958L47.6774 37.165L49.7304 37.3631L52.2352 40.8698C53.7172 39.757 55.349 38.9517 57.1306 38.4539C58.9349 37.9373 60.7805 37.77 62.6676 37.9521C64.6998 38.1482 66.5821 38.7275 68.3144 39.69C70.0487 40.6318 71.5274 41.8523 72.7506 43.3517C73.9757 44.8304 74.8887 46.5196 75.4898 48.4194C76.1134 50.3005 76.3317 52.268 76.1447 54.322L74.4103 73.3682L65.9185 72.5488L67.6529 53.5026C67.7322 52.6312 67.6409 51.7957 67.3791 50.996C67.119 50.1756 66.7252 49.4469 66.1974 48.81C65.6697 48.173 65.0373 47.6515 64.3003 47.2455C63.5632 46.8395 62.7592 46.5945 61.8883 46.5105C60.9966 46.4244 60.1416 46.5094 59.3234 46.7653C58.5052 47.0212 57.7793 47.4116 57.1457 47.9365C56.5122 48.4614 55.9936 49.1021 55.5901 49.8585C55.1884 50.5941 54.9478 51.3976 54.8685 52.269L53.1342 71.3152Z" fill="#5C5C5C"/>
        <path d="M142.466 33.5676L124.844 77.2602L115.897 76.6365L104.215 30.9013L114.377 31.6097L121.333 62.0731L132.24 32.8548L142.466 33.5676Z" fill="#5C5C5C"/>
        <path d="M178.005 80.2797L175.945 80.1731L172.861 75.4135C172.014 76.0998 171.117 76.7418 170.17 77.3395C169.245 77.9175 168.272 78.4199 167.25 78.8468C166.229 79.2529 165.181 79.5637 164.107 79.7793C163.053 79.996 161.986 80.0763 160.904 80.0203C158.553 79.8986 156.356 79.3885 154.314 78.4901C152.293 77.5928 150.539 76.3546 149.051 74.7756C147.586 73.1769 146.459 71.2619 145.671 69.0307C144.882 66.7995 144.556 64.2897 144.692 61.5013C144.819 58.9002 145.382 56.5408 146.382 54.423C147.383 52.2844 148.692 50.4746 150.307 48.9937C151.944 47.5138 153.813 46.4006 155.914 45.6541C158.037 44.8878 160.274 44.5655 162.625 44.6872C163.707 44.7432 164.772 44.9339 165.82 45.2594C166.868 45.5848 167.879 46.0127 168.855 46.543C169.83 47.0733 170.749 47.6841 171.613 48.3755C172.497 49.0679 173.316 49.8092 174.07 50.5992L177.571 46.8064L179.631 46.913L178.005 80.2797ZM170.252 62.8244C170.308 61.6591 170.134 60.5236 169.729 59.4178C169.346 58.2924 168.79 57.2935 168.061 56.4213C167.332 55.5283 166.46 54.8052 165.444 54.2519C164.45 53.679 163.371 53.3623 162.206 53.302C161.04 53.2417 159.928 53.3823 158.869 53.7238C157.83 54.0664 156.907 54.6027 156.1 55.3328C155.313 56.064 154.673 56.9905 154.181 58.1123C153.689 59.2134 153.408 60.4922 153.337 61.9488C153.266 63.4054 153.421 64.7173 153.802 65.8843C154.184 67.0306 154.731 68.0081 155.443 68.8168C156.175 69.6266 157.041 70.2555 158.041 70.7037C159.062 71.1529 160.155 71.4076 161.321 71.4679C162.486 71.5283 163.59 71.3351 164.634 70.8885C165.7 70.4221 166.637 69.7927 167.448 69.0002C168.259 68.1868 168.91 67.2505 169.399 66.191C169.911 65.1119 170.195 63.9897 170.252 62.8244ZM172.489 39.3775C172.463 39.9186 172.334 40.423 172.102 40.8908C171.892 41.3597 171.601 41.7723 171.229 42.1285C170.879 42.4651 170.459 42.725 169.971 42.9083C169.503 43.0927 169.009 43.1714 168.489 43.1445C167.948 43.1165 167.433 42.9855 166.943 42.7516C166.475 42.5187 166.072 42.2163 165.736 41.8442C165.401 41.4514 165.141 41.0103 164.956 40.5209C164.771 40.0315 164.692 39.5163 164.718 38.9753C164.744 38.4551 164.872 37.9611 165.103 37.4932C165.335 37.0254 165.636 36.6238 166.007 36.2883C166.378 35.9529 166.807 35.6935 167.296 35.5102C167.806 35.3279 168.331 35.2508 168.872 35.2788C169.392 35.3058 169.876 35.4351 170.323 35.6669C170.792 35.8997 171.184 36.2017 171.499 36.5726C171.836 36.9447 172.086 37.3749 172.25 37.8632C172.435 38.3525 172.514 38.8573 172.489 39.3775ZM161.257 38.7336C161.23 39.2954 161.1 39.8206 160.867 40.3093C160.636 40.7771 160.324 41.1886 159.931 41.5438C159.56 41.8792 159.131 42.1386 158.642 42.3219C158.153 42.5052 157.638 42.5829 157.098 42.5549C156.557 42.5269 156.042 42.3959 155.552 42.162C155.084 41.9291 154.671 41.6261 154.314 41.253C153.978 40.8601 153.708 40.4185 153.502 39.928C153.319 39.4178 153.24 38.8818 153.268 38.32C153.294 37.779 153.423 37.2745 153.654 36.8067C153.907 36.34 154.218 35.9389 154.589 35.6034C154.982 35.2483 155.423 34.979 155.911 34.7957C156.421 34.6135 156.946 34.5363 157.487 34.5643C158.028 34.5923 158.532 34.7228 159.001 34.9556C159.469 35.1885 159.871 35.5013 160.207 35.8942C160.564 36.2673 160.835 36.6986 161.02 37.188C161.204 37.6773 161.283 38.1925 161.257 38.7336Z" fill="#5C5C5C"/>
        <path d="M195.372 80.9136L186.846 80.6042L187.986 47.1548L190.047 47.2296L192.723 51.2981C194.139 50.0987 195.734 49.1976 197.505 48.5948C199.277 47.9711 201.1 47.6933 202.974 47.7613L210.5 48.0345L210.211 56.5296L202.685 56.2564C201.789 56.2239 200.941 56.3599 200.138 56.6643C199.336 56.9687 198.633 57.4019 198.03 57.9637C197.427 58.5255 196.946 59.196 196.586 59.9751C196.226 60.7543 196.03 61.5915 196 62.4868L195.372 80.9136Z" fill="#5C5C5C"/>
        <path d="M225.417 81.8218L216.826 81.6026L217.943 34.8347L226.534 35.0539L225.417 81.8218Z" fill="#5C5C5C"/>
        <path d="M268.904 82.4996L266.841 82.4742L263.581 77.84C262.761 78.5591 261.888 79.2359 260.964 79.8704C260.062 80.4844 259.107 81.0248 258.102 81.4916C257.097 81.9376 256.062 82.2895 254.996 82.5472C253.951 82.8052 252.887 82.9275 251.804 82.9142C249.45 82.8852 247.237 82.4205 245.163 81.5199C243.111 80.5987 241.313 79.3473 239.768 77.7657C238.245 76.1635 237.047 74.2841 236.176 72.1273C235.305 69.9498 234.884 67.5903 234.913 65.0488C234.941 62.5281 235.416 60.19 236.336 58.0345C237.257 55.879 238.496 54.0191 240.056 52.4548C241.636 50.8908 243.463 49.6736 245.535 48.8032C247.629 47.9331 249.852 47.5125 252.206 47.5415C252.956 47.5507 253.726 47.6227 254.517 47.7574C255.328 47.8924 256.106 48.1104 256.853 48.4112C257.621 48.6915 258.335 49.0649 258.997 49.5314C259.658 49.9979 260.214 50.5673 260.665 51.2396L260.843 35.6156L269.436 35.7214L268.904 82.4996ZM260.504 65.3637C260.518 64.1971 260.301 63.0693 259.855 61.9804C259.43 60.871 258.837 59.8948 258.076 59.0521C257.315 58.1885 256.416 57.5003 255.38 56.9875C254.366 56.4541 253.275 56.1803 252.108 56.1659C250.942 56.1516 249.835 56.3463 248.789 56.7501C247.764 57.1542 246.861 57.7473 246.081 58.5294C245.322 59.291 244.718 60.2315 244.268 61.3511C243.817 62.4706 243.584 63.7387 243.568 65.1553C243.554 66.3844 243.76 67.5536 244.185 68.6631C244.609 69.7726 245.192 70.7486 245.933 71.5911C246.694 72.4339 247.582 73.1011 248.597 73.5928C249.634 74.0847 250.735 74.3379 251.902 74.3523C253.068 74.3666 254.165 74.1301 255.191 73.6427C256.239 73.1347 257.152 72.4688 257.933 71.645C258.713 70.8004 259.328 69.8391 259.778 68.7613C260.249 67.6628 260.491 66.5303 260.504 65.3637Z" fill="#5C5C5C"/>
        <path d="M326.42 64.1039L326.282 55.1362C326.263 53.9072 326.006 52.7549 325.51 51.6793C325.035 50.5826 324.385 49.6345 323.56 48.835C322.735 48.0356 321.767 47.4155 320.656 46.9748C319.566 46.513 318.406 46.2918 317.177 46.3114C315.948 46.331 314.785 46.5891 313.688 47.0858C312.612 47.5614 311.674 48.2118 310.874 49.0372C310.074 49.8625 309.443 50.831 308.981 51.9427C308.539 53.0332 308.328 54.193 308.347 55.422L308.485 64.3897L326.42 64.1039ZM335.663 81.8651L326.695 82.008L326.557 73.0403L308.622 73.3262L308.76 82.2938L299.823 82.4363L299.411 55.5644C299.373 53.0856 299.806 50.7554 300.71 48.5741C301.613 46.3719 302.855 44.4456 304.434 42.7953C306.034 41.1446 307.91 39.8333 310.062 38.8613C312.234 37.8891 314.56 37.3832 317.039 37.3437C319.518 37.3042 321.848 37.7359 324.029 38.6388C326.23 39.5413 328.156 40.792 329.806 42.3909C331.455 43.9898 332.766 45.8754 333.737 48.0478C334.707 50.1992 335.212 52.5144 335.25 54.9933L335.663 81.8651Z" fill="#5C5C5C"/>
        <path d="M354.849 81.2482L341.019 48.2307L350.733 47.9002L358.719 68.5155L365.318 47.4038L375.062 47.0722L363.406 80.957L354.849 81.2482Z" fill="#5C5C5C"/>
        <path d="M440.647 72.4065C438.67 74.3018 436.431 75.8063 433.929 76.9198C431.426 78.0125 428.792 78.6437 426.026 78.8133C423.905 78.9433 421.841 78.7881 419.832 78.3477C417.846 77.9268 415.971 77.2695 414.208 76.3757C412.443 75.4612 410.814 74.3505 409.318 73.0438C407.822 71.7162 406.525 70.2303 405.427 68.5861C404.328 66.921 403.441 65.1178 402.764 63.1764C402.108 61.2338 401.718 59.2017 401.595 57.0804C401.471 54.959 401.622 52.9042 402.049 50.916C402.497 48.9266 403.17 47.0485 404.068 45.2819C404.966 43.4945 406.081 41.8607 407.414 40.3805C408.745 38.8795 410.234 37.5776 411.881 36.4748C413.528 35.3719 415.313 34.4902 417.236 33.8296C419.179 33.1469 421.211 32.7405 423.332 32.6105C426.098 32.4409 428.787 32.7561 431.401 33.5559C434.013 34.335 436.41 35.5447 438.593 37.1851L434.369 45.2712C432.937 43.9814 431.315 43.0059 429.503 42.3448C427.689 41.6628 425.805 41.3818 423.85 41.5016C421.896 41.6215 420.077 42.1087 418.395 42.9633C416.734 43.8165 415.296 44.9274 414.082 46.296C412.866 47.6437 411.935 49.2036 411.287 50.9758C410.638 52.7271 410.37 54.5803 410.484 56.5353C410.599 58.5111 411.082 60.3392 411.931 62.0195C412.78 63.6998 413.887 65.1452 415.251 66.3556C416.616 67.5661 418.173 68.4934 419.921 69.1375C421.691 69.7804 423.553 70.042 425.508 69.9221C426.631 69.8533 427.714 69.6511 428.759 69.3157C429.804 68.9803 430.791 68.5441 431.719 68.0071L430.977 55.2788L439.617 54.749L440.647 72.4065Z" fill="#5C5C5C"/>
        <path d="M457.868 75.6046L449.298 76.2507L445.956 29.589L454.525 28.9429L457.868 75.6046Z" fill="#5C5C5C"/>
        <path d="M501.267 71.9029L499.212 72.0851L495.527 67.8002C494.779 68.5986 493.976 69.36 493.117 70.0846C492.277 70.7865 491.379 71.4204 490.423 71.9862C489.466 72.5312 488.469 72.9856 487.433 73.3494C486.418 73.7113 485.371 73.9401 484.292 74.0358C481.947 74.2438 479.704 74.0453 477.563 73.4405C475.442 72.8338 473.54 71.8522 471.858 70.4955C470.195 69.1162 468.825 67.3763 467.749 65.2756C466.673 63.175 466.018 60.7337 465.784 57.9519C465.565 55.3569 465.811 52.9404 466.522 50.7022C467.23 48.4433 468.287 46.4672 469.692 44.7741C471.117 43.079 472.821 41.7148 474.804 40.6815C476.805 39.6255 478.979 38.9936 481.324 38.7856C482.403 38.6899 483.483 38.73 484.564 38.9061C485.645 39.0821 486.704 39.3646 487.74 39.7538C488.776 40.1429 489.768 40.6197 490.714 41.1841C491.681 41.7467 492.591 42.3667 493.442 43.0441L496.409 38.7967L498.463 38.6145L501.267 71.9029ZM491.277 55.6909C491.179 54.5284 490.857 53.4276 490.309 52.3886C489.781 51.3269 489.098 50.415 488.26 49.6527C487.421 48.8696 486.461 48.275 485.381 47.8688C484.321 47.44 483.21 47.2771 482.047 47.3802C480.885 47.4832 479.802 47.778 478.798 48.2644C477.814 48.7491 476.971 49.4095 476.268 50.2457C475.585 51.0801 475.074 52.0875 474.735 53.2679C474.393 54.4276 474.284 55.734 474.406 57.1872C474.529 58.6404 474.856 59.9186 475.388 61.0217C475.918 62.1041 476.589 62.9962 477.401 63.6981C478.233 64.3981 479.174 64.9002 480.224 65.2045C481.295 65.5069 482.412 65.6066 483.574 65.5035C484.736 65.4004 485.804 65.0547 486.779 64.4663C487.773 63.8553 488.619 63.1005 489.317 62.202C490.013 61.2828 490.534 60.2641 490.878 59.1459C491.242 58.0051 491.375 56.8535 491.277 55.6909Z" fill="#5C5C5C"/>
        <path d="M528.36 69.0785L508.968 71.1283L508.12 62.6707L527.512 60.6209C528.092 60.5596 528.568 60.2998 528.941 59.8414C529.314 59.383 529.471 58.8636 529.413 58.2832C529.352 57.682 529.106 57.3101 528.673 57.1673C528.24 57.0245 527.733 56.9838 527.153 57.0451L518.327 57.9781C516.856 58.1335 515.45 57.9993 514.11 57.5754C512.769 57.1515 511.574 56.5131 510.526 55.6603C509.475 54.7868 508.605 53.737 507.917 52.5109C507.249 51.2826 506.842 49.9326 506.694 48.4608C506.546 46.989 506.677 45.5821 507.087 44.2399C507.518 42.8956 508.161 41.6963 509.019 40.642C509.876 39.5877 510.92 38.7232 512.151 38.0484C513.379 37.353 514.729 36.9275 516.2 36.772L533.385 34.9554L534.234 43.413L517.048 45.2295C516.468 45.2909 515.991 45.5507 515.619 46.0091C515.246 46.4675 515.089 46.9869 515.147 47.5673C515.207 48.1685 515.466 48.6648 515.924 49.0563C516.38 49.4271 516.898 49.5818 517.479 49.5205L526.304 48.5876C527.755 48.4343 529.147 48.5385 530.481 48.9002C531.814 49.2412 533 49.7967 534.04 50.5666C535.081 51.3365 535.942 52.3033 536.624 53.4672C537.306 54.6311 537.72 55.9386 537.866 57.3897C538.013 58.8614 537.872 60.2695 537.441 61.6138C537.009 62.9375 536.365 64.1368 535.51 65.2118C534.652 66.2661 533.609 67.141 532.381 67.8364C531.151 68.5112 529.81 68.9252 528.36 69.0785Z" fill="#5C5C5C"/>
        </g>
        <defs>
        <filter id="filter0_i" x="6.05859" y="21.5457" width="531.864" height="65.3695" filterUnits="userSpaceOnUse" color-interpolation-filters="sRGB">
        <feFlood flood-opacity="0" result="BackgroundImageFix"/>
        <feBlend mode="normal" in="SourceGraphic" in2="BackgroundImageFix" result="shape"/>
        <feColorMatrix in="SourceAlpha" type="matrix" values="0 0 0 0 0 0 0 0 0 0 0 0 0 0 0 0 0 0 127 0" result="hardAlpha"/>
        <feOffset dy="4"/>
        <feGaussianBlur stdDeviation="2"/>
        <feComposite in2="hardAlpha" operator="arithmetic" k2="-1" k3="1"/>
        <feColorMatrix type="matrix" values="0 0 0 0 0 0 0 0 0 0 0 0 0 0 0 0 0 0 0.25 0"/>
        <feBlend mode="normal" in2="shape" result="effect1_innerShadow"/>
        </filter>
        </defs>
    </symbol>
</svg>
